<svg xmlns="http://www.w3.org/2000/svg" viewBox="0 0 1920 1920">
    <style>
        .st0{fill:#fff}.st1{fill:none;stroke:#231f20;stroke-width:50;stroke-linecap:round;stroke-linejoin:round;stroke-miterlimit:10}
    </style>
    <path class="st0" d="M434.6 274.2L622.9 477l-55.4 51.4-188.3-202.8 55.4-51.4zM323.8 377l188.3 202.9 55.4-51.4-188.3-202.9-55.4 51.4z" id="Layer_2"/>
    <g id="Layer_3">
        <path class="st0" d="M946 1158.2l-96.6-104-96.6-104-96.5-104-96.6-104-102.9-111 55.3-51.4 55.4-51.4 55.4-51.4 55.3-51.4 614.5 662-221.5 205.6z"/>
        <path class="st0" d="M1292.7 1087.6s32.5 48.1-12.7 122.6l-84.8 78.7-.8-.8c-77.7 39.6-123.2 5.1-123.2 5.1l221.5-205.6zm-97.5 201.3l-.8.7 127.5 120.6 68.8-63.8-110.7-136.2-84.8 78.7z"/>
    </g>
    <g id="STROKES">
        <g id="XMLID_1_">
            <g id="XMLID_2_">
                <path class="st1" d="M434.6 274.2l61.6-57.3"/>
                <path class="st1" d="M262.2 434.2l61.6-57.2"/>
                <path class="st1" d="M678.2 425.6l64.2-59.5"/>
                <path class="st1" d="M392.6 690.8l64.2-59.6"/>
                <path class="st1" d="M622.9 477l55.3-51.4 614.5 662-221.5 205.6-125.2-135-96.6-104-96.6-104-96.5-104-96.6-104-102.9-111 55.3-51.4"/>
                <path class="st1" d="M1280 1210.2l110.8 136.2-68.8 63.8-127.6-120.6.8-.7z"/>
                <path class="st1" d="M1377.3 1400.9l280.5 302.2"/>
                <path class="st1" d="M1292.7 1087.6s32.5 48.1-12.7 122.6"/>
                <path class="st1" d="M1071.2 1293.2s45.6 34.5 123.2-5.1"/>
                <path class="st1" d="M434.6 274.2l-55.4 51.4-55.4 51.4 188.3 202.8 55.4-51.4 55.4-51.4z"/>
                <path class="st1" d="M379.2 325.6l188.3 202.8"/>
                <path class="st1" d="M559.7 742.2l110.8-102.8"/>
                <path class="st1" d="M656.3 846.2L767 743.4"/>
                <path class="st1" d="M752.8 950.2l110.8-102.8"/>
                <path class="st1" d="M849.4 1054.2l110.7-102.8"/>
                <path class="st1" d="M946 1158.2l110.7-102.8"/>
            </g>
        </g>
    </g>
</svg>
